<?xml version="1.0" encoding="UTF-8" standalone="no"?>
<!-- Created with Inkscape (http://www.inkscape.org/) -->

<svg
   width="210mm"
   height="297mm"
   viewBox="0 0 210 297"
   version="1.1"
   id="svg5"
   xmlns:xlink="http://www.w3.org/1999/xlink"
   xmlns="http://www.w3.org/2000/svg"
   xmlns:svg="http://www.w3.org/2000/svg">
  <defs
     id="defs2">
    <linearGradient
       id="linearGradient820">
      <stop
         style="stop-color:#271d3b;stop-opacity:1;"
         offset="0.52411574"
         id="stop816" />
      <stop
         style="stop-color:#8360c3;stop-opacity:1;"
         offset="1"
         id="stop818" />
    </linearGradient>
    <linearGradient
       xlink:href="#linearGradient820"
       id="linearGradient822"
       x1="39.050659"
       y1="118.22678"
       x2="143.30518"
       y2="118.22678"
       gradientUnits="userSpaceOnUse"
       gradientTransform="translate(13.822087,31.773217)" />
  </defs>
  <g
     id="layer1">
    <path
       id="path236"
       style="fill:url(#linearGradient822);fill-opacity:1;stroke-width:0.264999"
       d="M 104.99979,50.000049 A 100,100 0 0 0 5.0002116,150.00015 100,100 0 0 0 104.99979,250.00024 100,100 0 0 0 204.99989,150.00015 100,100 0 0 0 104.99979,50.000049 Z m 37.78943,35.758024 c 8.39017,0 15.34911,1.480614 20.87676,4.442106 5.577,2.90454 9.72301,6.862972 12.43748,11.874731 2.76383,4.9548 4.14549,10.50762 4.14549,16.65841 0,4.10053 -0.93782,8.59952 -2.81327,13.49737 -1.87545,4.8409 -4.63929,8.59958 -8.29148,11.27631 l -4.2938,2.3921 4.146,1.1958 c 3.70155,2.05026 6.86015,4.55639 9.47591,7.51788 2.66512,2.90454 4.68852,6.26476 6.07043,10.08053 1.38191,3.75881 2.07274,7.91648 2.07274,12.47262 0,4.38529 -0.78952,8.7705 -2.36885,13.15579 -1.52997,4.38528 -3.77581,8.40034 -6.73705,12.04526 -2.91189,3.58796 -6.48979,6.46373 -10.73423,8.62789 -4.19509,2.16417 -8.98233,3.24632 -14.36191,3.24632 -2.81318,0 -5.87309,-0.22755 -9.17981,-0.68317 -3.30671,-0.39866 -7.15666,-1.19611 -11.54916,-2.3921 0.98708,-1.99331 2.14682,-3.81576 3.47937,-5.46736 1.33256,-1.70856 2.86251,-2.98994 4.5899,-3.84421 1.77675,-0.85428 3.77561,-1.05351 5.99654,-0.5979 1.18449,0.17085 2.24606,0.31294 3.18378,0.42685 0.98708,0.057 2.14682,0.0858 3.47938,0.0858 3.45477,0 6.63792,-1.05383 9.5498,-3.16105 2.91189,-2.16416 5.25642,-5.04045 7.03316,-8.62841 1.77675,-3.64491 2.66496,-7.68829 2.66496,-12.13053 0,-5.69517 -1.30803,-10.36508 -3.92379,-14.00999 -2.56641,-3.64492 -6.04562,-6.35028 -10.43813,-8.11579 -4.34315,-1.7655 -9.17999,-2.64842 -14.51022,-2.64842 H 125.76235 V 212.1912 H 111.69602 V 89.517017 c 3.70155,-0.854277 7.25543,-1.537955 10.66085,-2.050521 3.40543,-0.569518 6.76141,-0.996817 10.06812,-1.281576 3.35607,-0.284759 6.81074,-0.426847 10.36423,-0.426847 z M 34.999931,87.979126 H 49.21405 V 199.71856 h 45.01069 l -0.147795,12.47262 H 34.999931 Z M 142.78922,98.401229 c -2.66512,0 -5.5031,0.08546 -8.5137,0.256315 -3.01059,0.170855 -5.84806,0.427235 -8.51317,0.768945 v 41.859461 h 17.02687 c 4.9354,0 9.08141,-0.99669 12.43748,-2.99 3.40543,-1.99331 5.97137,-4.69816 7.69876,-8.11527 1.77674,-3.4171 2.66547,-7.23293 2.66547,-11.44736 0,-3.87272 -0.86367,-7.34722 -2.59106,-10.42262 -1.72739,-3.07539 -4.29385,-5.49555 -7.69927,-7.26105 -3.35607,-1.765509 -7.52663,-2.648421 -12.51138,-2.648421 z" />
  </g>
</svg>
